DBRep_DrawableShape

CASCADE Topology V1, (c) Matra-Datavision
Locations 11
1
              1               0               0               0 
              0               1               0               0 
              0               0               1               0 
1
              1               0               0            -127 
              0               1               0           -25.4 
              0               0               1               0 
1
              1               0               0          -101.6 
              0               1               0           -12.7 
              0               0               1            6.35 
1
              1               0               0          -101.6 
              0               1               0          269.24 
              0               0               1            6.35 
1
              1               0               0               0 
              0               1               0               0 
              0               0               1               0 
1
              1               0               0              -0 
              0               1               0              -0 
              0               0               1  -19.0499992371 
1
              1               0               0   184.249472046 
              0               1               0               0 
              0               0               1               0 
2  7 -1 0
2  6 -1 7 -1 0
2  7 1 6 1 0
1
              1               0               0          -101.6 
              0               1               0           330.2 
              0               0               1            6.35 
Curve2ds 104
1 0 0 1 0 
1 0 0 1 0 
1 10 0 0 -1 
1 0 0 0 1 
1 0 -441.32499999999999 1 0 
1 0 0 1 0 
1 0 0 0 -1 
1 0 0 0 1 
1 0 0 1 0 
1 0 161.92500000000001 1 0 
1 10 0 0 -1 
1 161.92500000000001 0 0 1 
1 0 -441.32499999999999 1 0 
1 0 161.92500000000001 1 0 
1 0 0 0 -1 
1 161.92500000000001 0 0 1 
1 0 0 0 1 
1 0 0 1 0 
1 10 0 0 1 
1 0 0 1 0 
1 0 0 0 1 
1 0 441.32499999999999 1 0 
1 10 0 0 1 
1 0 441.32499999999999 1 0 
1 0 0 1 0 
1 0 0 1 0 
1 12.699999999999999 0 0 -1 
1 0 0 0 1 
1 0 -274.31999999999999 1 0 
1 0 0 1 0 
1 0 0 0 -1 
1 0 0 0 1 
1 0 0 1 0 
1 0 111.125 1 0 
1 12.699999999999999 0 0 -1 
1 111.125 0 0 1 
1 0 -274.31999999999999 1 0 
1 0 111.125 1 0 
1 0 0 0 -1 
1 111.125 0 0 1 
1 0 0 0 1 
1 0 0 1 0 
1 12.699999999999999 0 0 1 
1 0 0 1 0 
1 0 0 0 1 
1 0 274.31999999999999 1 0 
1 12.699999999999999 0 0 1 
1 0 274.31999999999999 1 0 
1 0 0 1 0 
1 0 0 1 0 
1 12.699999999999999 0 0 -1 
1 0 0 0 1 
1 0 -53.340000000000003 1 0 
1 0 0 1 0 
1 0 0 0 -1 
1 0 0 0 1 
1 0 0 1 0 
1 0 60.325000000000003 1 0 
1 12.699999999999999 0 0 -1 
1 60.325000000000003 0 0 1 
1 0 -53.340000000000003 1 0 
1 0 60.325000000000003 1 0 
1 0 0 0 -1 
1 60.325000000000003 0 0 1 
1 0 0 0 1 
1 0 0 1 0 
1 12.699999999999999 0 0 1 
1 0 0 1 0 
1 0 0 0 1 
1 0 53.340000000000003 1 0 
1 12.699999999999999 0 0 1 
1 0 53.340000000000003 1 0 
1 0 0 -1 0 
1 -23.042091370000009 0 -3.873228445543667e-07 0.99999999999992506 
1 -23.042098999000018 19.69674682699997 -1 0 
1 -41.131500244000023 19.69674682699997 0 1 
1 -41.131500244000023 34.469329834999996 1 0 
1 -23.042098999000018 34.469329834999996 4.0920040123718427e-07 0.99999999999991629 
1 -23.042091370000009 53.113006591999977 1 0 
1 0 53.113006591999977 0 -1 
1 0 0 1 0 
1 0 0 1 0 
1 12.699999999999999 0 0 -1 
1 0 0 0 1 
1 0 -71.120000000000005 1 0 
1 0 0 1 0 
1 0 0 0 -1 
1 0 0 0 1 
1 0 0 1 0 
1 0 111.125 1 0 
1 12.699999999999999 0 0 -1 
1 111.125 0 0 1 
1 0 -71.120000000000005 1 0 
1 0 111.125 1 0 
1 0 0 0 -1 
1 111.125 0 0 1 
1 0 0 0 1 
1 0 0 1 0 
1 12.699999999999999 0 0 1 
1 0 0 1 0 
1 0 0 0 1 
1 0 71.120000000000005 1 0 
1 12.699999999999999 0 0 1 
1 0 71.120000000000005 1 0 
Curves 64
1 0 0 0 0 0 1 
1 0 0 10 -0 1 0 
1 0 441.32499999999999 0 0 0 1 
1 0 0 0 -0 1 0 
1 161.92500000000001 0 0 0 0 1 
1 161.92500000000001 0 10 0 1 0 
1 161.92500000000001 441.32499999999999 0 0 0 1 
1 161.92500000000001 0 0 -0 1 0 
1 0 0 0 1 0 -0 
1 0 0 10 1 0 -0 
1 0 441.32499999999999 0 1 0 -0 
1 0 441.32499999999999 10 1 0 -0 
1 0 0 0 0 0 1 
1 0 0 12.699999999999999 -0 1 0 
1 0 274.31999999999999 0 0 0 1 
1 0 0 0 -0 1 0 
1 111.125 0 0 0 0 1 
1 111.125 0 12.699999999999999 0 1 0 
1 111.125 274.31999999999999 0 0 0 1 
1 111.125 0 0 -0 1 0 
1 0 0 0 1 0 -0 
1 0 0 12.699999999999999 1 0 -0 
1 0 274.31999999999999 0 1 0 -0 
1 0 274.31999999999999 12.699999999999999 1 0 -0 
1 0 0 0 0 0 1 
1 0 0 12.699999999999999 -0 1 0 
1 0 53.340000000000003 0 0 0 1 
1 0 0 0 -0 1 0 
1 60.325000000000003 0 0 0 0 1 
1 60.325000000000003 0 12.699999999999999 0 1 0 
1 60.325000000000003 53.340000000000003 0 0 0 1 
1 60.325000000000003 0 0 -0 1 0 
1 0 0 0 1 0 -0 
1 0 0 12.699999999999999 1 0 -0 
1 0 53.340000000000003 0 1 0 -0 
1 0 53.340000000000003 12.699999999999999 1 0 -0 
1 9.5250000000000057 269.46697998000002 19.0499992371 -0 -0 -1 
1 -13.517091370000003 269.46697998000002 19.0499992371 -0 -0 -1 
1 -174.72447204599999 269.46697998000002 19.0499992371 -1 0 0 
1 -13.517098999000012 289.16372680699999 19.0499992371 -0 -0 -1 
1 -197.766563416 269.46697998000002 19.0499992371 -3.8732284455436665e-07 0.99999999999992495 0 
1 -31.606500244000017 289.16372680699999 19.0499992371 -0 -0 -1 
1 -197.76657104500001 289.16372680699999 19.0499992371 -1 0 0 
1 -31.606500244000017 303.93630981500002 19.0499992371 -0 -0 -1 
1 -215.85597229000001 289.16372680699999 19.0499992371 0 1 0 
1 -13.517098999000012 303.93630981500002 19.0499992371 -0 -0 -1 
1 -215.85597229000001 303.93630981500002 19.0499992371 1 0 0 
1 -13.517091370000003 322.579986572 19.0499992371 -0 -0 -1 
1 -197.76657104500001 303.93630981500002 19.0499992371 4.0920040123718422e-07 0.99999999999991618 0 
1 9.5250000000000057 322.579986572 19.0499992371 -0 -0 -1 
1 -197.766563416 322.579986572 19.0499992371 1 0 0 
1 -174.72447204599999 322.579986572 19.0499992371 0 -1 0 
1 0 0 0 0 0 1 
1 0 0 12.699999999999999 -0 1 0 
1 0 71.120000000000005 0 0 0 1 
1 0 0 0 -0 1 0 
1 111.125 0 0 0 0 1 
1 111.125 0 12.699999999999999 0 1 0 
1 111.125 71.120000000000005 0 0 0 1 
1 111.125 0 0 -0 1 0 
1 0 0 0 1 0 -0 
1 0 0 12.699999999999999 1 0 -0 
1 0 71.120000000000005 0 1 0 -0 
1 0 71.120000000000005 12.699999999999999 1 0 -0 
Polygon3D 0
PolygonOnTriangulations 136
2 1 2 
p 1.03716666666667 1 0 10 
2 1 4 
p 1.03716666666667 1 0 10 
2 2 3 
p 1.03716666666667 1 0 441.325 
2 1 2 
p 1.03716666666667 1 0 441.325 
2 4 3 
p 1.03716666666667 1 0 10 
2 1 4 
p 1.03716666666667 1 0 10 
2 1 4 
p 1.03716666666667 1 0 441.325 
2 1 2 
p 1.03716666666667 1 0 441.325 
2 1 2 
p 1.03716666666667 1 0 10 
2 2 3 
p 1.03716666666667 1 0 10 
2 2 3 
p 1.03716666666667 1 0 441.325 
2 4 3 
p 1.03716666666667 1 0 441.325 
2 4 3 
p 1.03716666666667 1 0 10 
2 2 3 
p 1.03716666666667 1 0 10 
2 1 4 
p 1.03716666666667 1 0 441.325 
2 4 3 
p 1.03716666666667 1 0 441.325 
2 1 2 
p 1.03716666666667 1 0 161.925 
2 1 4 
p 1.03716666666667 1 0 161.925 
2 4 3 
p 1.03716666666667 1 0 161.925 
2 1 4 
p 1.03716666666667 1 0 161.925 
2 1 2 
p 1.03716666666667 1 0 161.925 
2 2 3 
p 1.03716666666667 1 0 161.925 
2 4 3 
p 1.03716666666667 1 0 161.925 
2 2 3 
p 1.03716666666667 1 0 161.925 
2 1 2 
p 1.03716666666667 1 0 12.7 
2 1 4 
p 1.03716666666667 1 0 12.7 
2 2 3 
p 1.03716666666667 1 0 274.32 
2 1 2 
p 1.03716666666667 1 0 274.32 
2 4 3 
p 1.03716666666667 1 0 12.7 
2 1 4 
p 1.03716666666667 1 0 12.7 
2 1 4 
p 1.03716666666667 1 0 274.32 
2 1 2 
p 1.03716666666667 1 0 274.32 
2 1 2 
p 1.03716666666667 1 0 12.7 
2 2 3 
p 1.03716666666667 1 0 12.7 
2 2 3 
p 1.03716666666667 1 0 274.32 
2 4 3 
p 1.03716666666667 1 0 274.32 
2 4 3 
p 1.03716666666667 1 0 12.7 
2 2 3 
p 1.03716666666667 1 0 12.7 
2 1 4 
p 1.03716666666667 1 0 274.32 
2 4 3 
p 1.03716666666667 1 0 274.32 
2 1 2 
p 1.03716666666667 1 0 111.125 
2 1 4 
p 1.03716666666667 1 0 111.125 
2 4 3 
p 1.03716666666667 1 0 111.125 
2 1 4 
p 1.03716666666667 1 0 111.125 
2 1 2 
p 1.03716666666667 1 0 111.125 
2 2 3 
p 1.03716666666667 1 0 111.125 
2 4 3 
p 1.03716666666667 1 0 111.125 
2 2 3 
p 1.03716666666667 1 0 111.125 
2 1 2 
p 1.03716666666667 1 0 12.7 
2 1 4 
p 1.03716666666667 1 0 12.7 
2 2 3 
p 1.03716666666667 1 0 53.34 
2 1 2 
p 1.03716666666667 1 0 53.34 
2 4 3 
p 1.03716666666667 1 0 12.7 
2 1 4 
p 1.03716666666667 1 0 12.7 
2 1 4 
p 1.03716666666667 1 0 53.34 
2 1 2 
p 1.03716666666667 1 0 53.34 
2 1 2 
p 1.03716666666667 1 0 12.7 
2 2 3 
p 1.03716666666667 1 0 12.7 
2 2 3 
p 1.03716666666667 1 0 53.34 
2 4 3 
p 1.03716666666667 1 0 53.34 
2 4 3 
p 1.03716666666667 1 0 12.7 
2 2 3 
p 1.03716666666667 1 0 12.7 
2 1 4 
p 1.03716666666667 1 0 53.34 
2 4 3 
p 1.03716666666667 1 0 53.34 
2 1 2 
p 1.03716666666667 1 0 60.325 
2 1 4 
p 1.03716666666667 1 0 60.325 
2 4 3 
p 1.03716666666667 1 0 60.325 
2 1 4 
p 1.03716666666667 1 0 60.325 
2 1 2 
p 1.03716666666667 1 0 60.325 
2 2 3 
p 1.03716666666667 1 0 60.325 
2 4 3 
p 1.03716666666667 1 0 60.325 
2 2 3 
p 1.03716666666667 1 0 60.325 
2 1 2 
p 1.03716666666667 1 0 19.0499992371 
2 3 4 
p 1.03716666666667 1 0 19.0499992371 
2 3 4 
p 1.03716666666667 1 0 19.0499992371 
2 1 2 
p 1.03716666666667 1 0 19.0499992371 
2 1 3 
p 1.03716666666667 1 0 23.04209137 
2 2 4 
p 1.03716666666667 1 0 23.04209137 
2 1 2 
p 1.03716666666667 1 0 23.04209137 
2 3 4 
p 1.03716666666667 1 0 19.0499992371 
2 1 2 
p 1.03716666666667 1 0 19.0499992371 
2 2 4 
p 1.03716666666667 1 0 19.6967468270014 
2 1 3 
p 1.03716666666667 1 0 19.6967468270014 
2 2 3 
p 1.03716666666667 1 0 19.6967468270014 
2 3 4 
p 1.03716666666667 1 0 19.0499992371 
2 1 2 
p 1.03716666666667 1 0 19.0499992371 
2 1 3 
p 1.03716666666667 1 0 18.089401245 
2 2 4 
p 1.03716666666667 1 0 18.089401245 
2 3 4 
p 1.03716666666667 1 0 18.089401245 
2 3 4 
p 1.03716666666667 1 0 19.0499992371 
2 1 2 
p 1.03716666666667 1 0 19.0499992371 
2 1 3 
p 1.03716666666667 1 0 14.772583008 
2 2 4 
p 1.03716666666667 1 0 14.772583008 
2 4 5 
p 1.03716666666667 1 0 14.772583008 
2 3 4 
p 1.03716666666667 1 0 19.0499992371 
2 1 2 
p 1.03716666666667 1 0 19.0499992371 
2 2 4 
p 1.03716666666667 1 0 18.089401245 
2 1 3 
p 1.03716666666667 1 0 18.089401245 
2 5 6 
p 1.03716666666667 1 0 18.089401245 
2 3 4 
p 1.03716666666667 1 0 19.0499992371 
2 1 2 
p 1.03716666666667 1 0 19.0499992371 
2 1 3 
p 1.03716666666667 1 0 18.6436767570015 
2 2 4 
p 1.03716666666667 1 0 18.6436767570015 
2 6 7 
p 1.03716666666667 1 0 18.6436767570015 
2 3 4 
p 1.03716666666667 1 0 19.0499992371 
2 1 2 
p 1.03716666666667 1 0 19.0499992371 
2 1 3 
p 1.03716666666667 1 0 23.04209137 
2 2 4 
p 1.03716666666667 1 0 23.04209137 
2 7 8 
p 1.03716666666667 1 0 23.04209137 
2 2 4 
p 1.03716666666667 1 0 53.113006592 
2 1 3 
p 1.03716666666667 1 0 53.113006592 
2 8 1 
p 1.03716666666667 1 0 53.113006592 
2 1 2 
p 1.03716666666667 1 0 12.7 
2 1 4 
p 1.03716666666667 1 0 12.7 
2 2 3 
p 1.03716666666667 1 0 71.12 
2 1 2 
p 1.03716666666667 1 0 71.12 
2 4 3 
p 1.03716666666667 1 0 12.7 
2 1 4 
p 1.03716666666667 1 0 12.7 
2 1 4 
p 1.03716666666667 1 0 71.12 
2 1 2 
p 1.03716666666667 1 0 71.12 
2 1 2 
p 1.03716666666667 1 0 12.7 
2 2 3 
p 1.03716666666667 1 0 12.7 
2 2 3 
p 1.03716666666667 1 0 71.12 
2 4 3 
p 1.03716666666667 1 0 71.12 
2 4 3 
p 1.03716666666667 1 0 12.7 
2 2 3 
p 1.03716666666667 1 0 12.7 
2 1 4 
p 1.03716666666667 1 0 71.12 
2 4 3 
p 1.03716666666667 1 0 71.12 
2 1 2 
p 1.03716666666667 1 0 111.125 
2 1 4 
p 1.03716666666667 1 0 111.125 
2 4 3 
p 1.03716666666667 1 0 111.125 
2 1 4 
p 1.03716666666667 1 0 111.125 
2 1 2 
p 1.03716666666667 1 0 111.125 
2 2 3 
p 1.03716666666667 1 0 111.125 
2 4 3 
p 1.03716666666667 1 0 111.125 
2 2 3 
p 1.03716666666667 1 0 111.125 
Surfaces 33
1 0 0 0 1 0 -0 0 0 1 0 -1 0 
1 0 0 0 -0 1 0 0 0 1 1 0 -0 
1 0 0 10 0 0 1 1 0 -0 -0 1 0 
1 0 441.32499999999999 0 -0 1 0 0 0 1 1 0 -0 
1 0 0 0 0 0 1 1 0 -0 -0 1 0 
1 161.92500000000001 0 0 1 0 -0 0 0 1 0 -1 0 
1 0 0 0 1 0 -0 0 0 1 0 -1 0 
1 0 0 0 -0 1 0 0 0 1 1 0 -0 
1 0 0 12.699999999999999 0 0 1 1 0 -0 -0 1 0 
1 0 274.31999999999999 0 -0 1 0 0 0 1 1 0 -0 
1 0 0 0 0 0 1 1 0 -0 -0 1 0 
1 111.125 0 0 1 0 -0 0 0 1 0 -1 0 
1 0 0 0 1 0 -0 0 0 1 0 -1 0 
1 0 0 0 -0 1 0 0 0 1 1 0 -0 
1 0 0 12.699999999999999 0 0 1 1 0 -0 -0 1 0 
1 0 53.340000000000003 0 -0 1 0 0 0 1 1 0 -0 
1 0 0 0 0 0 1 1 0 -0 -0 1 0 
1 60.325000000000003 0 0 1 0 -0 0 0 1 0 -1 0 
1 9.5250000000000057 269.46697998000002 19.0499992371 0 1 -0 -1 0 0 0 0 1 
1 -174.72447204599999 269.46697998000002 19.0499992371 0 0 1 1 0 -0 -0 1 0 
1 -13.517091370000003 269.46697998000002 19.0499992371 0.99999999999992506 3.873228445543667e-07 -0 -3.873228445543667e-07 0.99999999999992506 0 0 0 1 
1 -13.517098999000012 289.16372680699999 19.0499992371 0 1 -0 -1 0 0 0 0 1 
1 -31.606500244000017 289.16372680699999 19.0499992371 1 0 0 -0 1 0 0 -0 1 
1 -31.606500244000017 303.93630981500002 19.0499992371 0 -1 0 1 0 0 -0 0 1 
1 -13.517098999000012 303.93630981500002 19.0499992371 0.99999999999991629 -4.0920040123718427e-07 0 4.0920040123718427e-07 0.99999999999991629 0 -0 0 1 
1 -13.517091370000003 322.579986572 19.0499992371 0 -1 0 1 0 0 -0 0 1 
1 9.5250000000000057 322.579986572 19.0499992371 -1 0 0 0 -1 0 0 0 1 
1 0 0 0 1 0 -0 0 0 1 0 -1 0 
1 0 0 0 -0 1 0 0 0 1 1 0 -0 
1 0 0 12.699999999999999 0 0 1 1 0 -0 -0 1 0 
1 0 71.120000000000005 0 -0 1 0 0 0 1 1 0 -0 
1 0 0 0 0 0 1 1 0 -0 -0 1 0 
1 111.125 0 0 1 0 -0 0 0 1 0 -1 0 
Triangulations 33
4 2 1 0
0 0 0 0 0 10 0 441.325 10 0 441.325 0 0 0 10 0 10 -441.325 0 -441.325 2 4 3 2 1 4 
4 2 1 0
0 0 0 161.925 0 0 161.925 0 10 0 0 10 0 0 0 161.925 10 161.925 10 0 3 2 1 3 1 4 
4 2 1 1.4210854715202e-14
0 0 10 0 441.325 10 161.925 441.325 10 161.925 0 10 0 0 0 441.325 161.925 441.325 161.925 0 3 2 1 3 1 4 
4 2 1 0
0 441.325 0 161.925 441.325 0 161.925 441.325 10 0 441.325 10 0 0 0 161.925 10 161.925 10 0 3 2 1 3 1 4 
4 2 1 1.4210854715202e-14
0 0 0 0 441.325 0 161.925 441.325 0 161.925 0 0 0 0 0 441.325 161.925 441.325 161.925 0 3 2 1 3 1 4 
4 2 1 0
161.925 0 0 161.925 0 10 161.925 441.325 10 161.925 441.325 0 0 0 10 0 10 -441.325 0 -441.325 2 4 3 2 1 4 
4 2 1 8.88178419700125e-16
0 0 0 0 0 12.7 0 274.32 12.7 0 274.32 0 0 0 12.7 0 12.7 -274.32 0 -274.32 2 4 3 2 1 4 
4 2 1 8.88178419700125e-16
0 0 0 111.125 0 0 111.125 0 12.7 0 0 12.7 0 0 0 111.125 12.7 111.125 12.7 0 3 2 1 3 1 4 
4 2 1 0
0 0 12.7 0 274.32 12.7 111.125 274.32 12.7 111.125 0 12.7 0 0 0 274.32 111.125 274.32 111.125 0 3 2 1 3 1 4 
4 2 1 8.88178419700125e-16
0 274.32 0 111.125 274.32 0 111.125 274.32 12.7 0 274.32 12.7 0 0 0 111.125 12.7 111.125 12.7 0 3 2 1 3 1 4 
4 2 1 0
0 0 0 0 274.32 0 111.125 274.32 0 111.125 0 0 0 0 0 274.32 111.125 274.32 111.125 0 3 2 1 3 1 4 
4 2 1 8.88178419700125e-16
111.125 0 0 111.125 0 12.7 111.125 274.32 12.7 111.125 274.32 0 0 0 12.7 0 12.7 -274.32 0 -274.32 2 4 3 2 1 4 
4 2 1 8.88178419700125e-16
0 0 0 0 0 12.7 0 53.34 12.7 0 53.34 0 0 0 12.7 0 12.7 -53.34 0 -53.34 1 4 3 2 1 3 
4 2 1 8.88178419700125e-16
0 0 0 60.325 0 0 60.325 0 12.7 0 0 12.7 0 0 0 60.325 12.7 60.325 12.7 0 2 1 4 3 2 4 
4 2 1 3.5527136788005e-15
0 0 12.7 0 53.34 12.7 60.325 53.34 12.7 60.325 0 12.7 0 0 0 53.34 60.325 53.34 60.325 0 3 2 1 3 1 4 
4 2 1 8.88178419700125e-16
0 53.34 0 60.325 53.34 0 60.325 53.34 12.7 0 53.34 12.7 0 0 0 60.325 12.7 60.325 12.7 0 2 1 4 3 2 4 
4 2 1 3.5527136788005e-15
0 0 0 0 53.34 0 60.325 53.34 0 60.325 0 0 0 0 0 53.34 60.325 53.34 60.325 0 3 2 1 3 1 4 
4 2 1 8.88178419700125e-16
60.325 0 0 60.325 0 12.7 60.325 53.34 12.7 60.325 53.34 0 0 0 12.7 0 12.7 -53.34 0 -53.34 1 4 3 2 1 3 
4 2 1 0
9.52500000000001 269.46697998 19.0499992371 9.52500000000001 269.46697998 0 -13.51709137 269.46697998 19.0499992371 -13.51709137 269.46697998 0 0 0 0 -19.0499992371 23.04209137 0 23.04209137 -19.0499992371 4 1 2 3 1 4 
4 2 1 1.06581410364015e-14
9.52500000000001 322.579986572 19.0499992371 9.52500000000001 322.579986572 0 9.52500000000001 269.46697998 19.0499992371 9.52500000000001 269.46697998 0 0 0 0 -19.0499992371 53.113006592 0 53.113006592 -19.0499992371 3 1 2 3 2 4 
4 2 1 5.92119228811066e-16
-13.51709137 269.46697998 19.0499992371 -13.51709137 269.46697998 0 -13.517098999 289.163726807 19.0499992371 -13.517098999 289.163726807 0 0 0 0 -19.0499992371 19.6967468270014 0 19.6967468270014 -19.0499992371 3 1 2 3 2 4 
8 6 1 1.59872115546023e-14
-174.724472046 269.46697998 19.0499992371 -197.766563416 269.46697998 19.0499992371 -197.766571045 289.163726807 19.0499992371 -215.85597229 289.163726807 19.0499992371 -215.85597229 303.936309815 19.0499992371 -197.766571045 303.936309815 19.0499992371 -197.766563416 322.579986572 19.0499992371 -174.724472046 322.579986572 19.0499992371 0 0 -23.04209137 0 -23.042098999 19.696746827 -41.131500244 19.696746827 -41.131500244 34.469329835 -23.042098999 34.469329835 -23.04209137 53.113006592 0 53.113006592 3 5 4 1 3 2 6 5 3 8 7 6 8 3 1 8 6 3 
4 2 1 8.88178419700125e-16
-13.517098999 289.163726807 19.0499992371 -13.517098999 289.163726807 0 -31.606500244 289.163726807 19.0499992371 -31.606500244 289.163726807 0 0 0 0 -19.0499992371 18.089401245 0 18.089401245 -19.0499992371 3 1 2 3 2 4 
4 2 1 2.30926389122033e-14
-31.606500244 289.163726807 19.0499992371 -31.606500244 289.163726807 0 -31.606500244 303.936309815 19.0499992371 -31.606500244 303.936309815 0 0 0 0 -19.0499992371 14.772583008 0 14.772583008 -19.0499992371 3 1 2 3 2 4 
4 2 1 8.88178419700125e-16
-31.606500244 303.936309815 19.0499992371 -31.606500244 303.936309815 0 -13.517098999 303.936309815 19.0499992371 -13.517098999 303.936309815 0 0 0 0 -19.0499992371 18.089401245 0 18.089401245 -19.0499992371 3 1 2 3 2 4 
4 2 1 5.92126852107591e-16
-13.517098999 303.936309815 19.0499992371 -13.517098999 303.936309815 0 -13.51709137 322.579986572 19.0499992371 -13.51709137 322.579986572 0 0 0 0 -19.0499992371 18.6436767570016 0 18.6436767570016 -19.0499992371 3 1 2 3 2 4 
4 2 1 0
-13.51709137 322.579986572 19.0499992371 -13.51709137 322.579986572 0 9.52500000000001 322.579986572 19.0499992371 9.52500000000001 322.579986572 0 0 0 0 -19.0499992371 23.04209137 0 23.04209137 -19.0499992371 4 1 2 3 1 4 
4 2 1 8.88178419700125e-16
0 0 0 0 0 12.7 0 71.12 12.7 0 71.12 0 0 0 12.7 0 12.7 -71.12 0 -71.12 2 4 3 2 1 4 
4 2 1 8.88178419700125e-16
0 0 0 111.125 0 0 111.125 0 12.7 0 0 12.7 0 0 0 111.125 12.7 111.125 12.7 0 3 2 1 3 1 4 
4 2 1 0
0 0 12.7 0 71.12 12.7 111.125 71.12 12.7 111.125 0 12.7 0 0 0 71.12 111.125 71.12 111.125 0 4 2 1 3 2 4 
4 2 1 8.88178419700125e-16
0 71.12 0 111.125 71.12 0 111.125 71.12 12.7 0 71.12 12.7 0 0 0 111.125 12.7 111.125 12.7 0 3 2 1 3 1 4 
4 2 1 0
0 0 0 0 71.12 0 111.125 71.12 0 111.125 0 0 0 0 0 71.12 111.125 71.12 111.125 0 4 2 1 3 2 4 
4 2 1 8.88178419700125e-16
111.125 0 0 111.125 0 12.7 111.125 71.12 12.7 111.125 71.12 0 0 0 12.7 0 12.7 -71.12 0 -71.12 2 4 3 2 1 4 

TShapes 182
Ve
1e-07
0 0 10
0 0

0101101
*
Ve
1e-07
0 0 0
0 0

0101101
*
Ed
 1e-07 1 1 0
1  1 0 0 10
2  1 1 0 0 10
2  2 2 0 0 10
6  1 1 0
6  2 2 0
0

0101000
-182 0 +181 0 *
Ve
1e-07
0 441.325 10
0 0

0101101
*
Ed
 1e-07 1 1 0
1  2 0 0 441.325
2  3 1 0 0 441.325
2  4 3 0 0 441.325
6  3 1 0
6  4 3 0
0

0101000
-179 0 +182 0 *
Ve
1e-07
0 441.325 0
0 0

0101101
*
Ed
 1e-07 1 1 0
1  3 0 0 10
2  5 1 0 0 10
2  6 4 0 0 10
6  5 1 0
6  6 4 0
0

0101000
-179 0 +177 0 *
Ed
 1e-07 1 1 0
1  4 0 0 441.325
2  7 1 0 0 441.325
2  8 5 0 0 441.325
6  7 1 0
6  8 5 0
0

0101000
-177 0 +181 0 *
Wi

0101000
-180 0 -178 0 +176 0 +175 0 *
Fa
0  1e-07 1 0
2  1
0101000
+174 0 *
Ve
1e-07
161.925 0 10
0 0

0101101
*
Ve
1e-07
161.925 0 0
0 0

0101101
*
Ed
 1e-07 1 1 0
1  5 0 0 10
2  9 6 0 0 10
2  10 2 0 0 10
6  9 6 0
6  10 2 0
0

0101000
-172 0 +171 0 *
Ve
1e-07
161.925 441.325 10
0 0

0101101
*
Ed
 1e-07 1 1 0
1  6 0 0 441.325
2  11 6 0 0 441.325
2  12 3 0 0 441.325
6  11 6 0
6  12 3 0
0

0101000
-169 0 +172 0 *
Ve
1e-07
161.925 441.325 0
0 0

0101101
*
Ed
 1e-07 1 1 0
1  7 0 0 10
2  13 6 0 0 10
2  14 4 0 0 10
6  13 6 0
6  14 4 0
0

0101000
-169 0 +167 0 *
Ed
 1e-07 1 1 0
1  8 0 0 441.325
2  15 6 0 0 441.325
2  16 5 0 0 441.325
6  15 6 0
6  16 5 0
0

0101000
-167 0 +171 0 *
Wi

0101000
-170 0 -168 0 +166 0 +165 0 *
Fa
0  1e-07 6 0
2  6
0101000
+164 0 *
Ed
 1e-07 1 1 0
1  9 0 0 161.925
2  17 2 0 0 161.925
2  18 5 0 0 161.925
6  17 2 0
6  18 5 0
0

0101000
-171 0 +181 0 *
Ed
 1e-07 1 1 0
1  10 0 0 161.925
2  19 2 0 0 161.925
2  20 3 0 0 161.925
6  19 2 0
6  20 3 0
0

0101000
-172 0 +182 0 *
Wi

0101000
-162 0 -170 0 +161 0 +180 0 *
Fa
0  1e-07 2 0
2  2
0101000
+160 0 *
Ed
 1e-07 1 1 0
1  11 0 0 161.925
2  21 4 0 0 161.925
2  22 5 0 0 161.925
6  21 4 0
6  22 5 0
0

0101000
-167 0 +177 0 *
Ed
 1e-07 1 1 0
1  12 0 0 161.925
2  23 4 0 0 161.925
2  24 3 0 0 161.925
6  23 4 0
6  24 3 0
0

0101000
-169 0 +179 0 *
Wi

0101000
-158 0 -166 0 +157 0 +176 0 *
Fa
0  1e-07 4 0
2  4
0101000
+156 0 *
Wi

0101000
-175 0 -158 0 +165 0 +162 0 *
Fa
0  1e-07 5 0
2  5
0101000
+154 0 *
Wi

0101000
-178 0 -157 0 +168 0 +161 0 *
Fa
0  1e-07 3 0
2  3
0101000
+152 0 *
Sh

0101100
-173 0 +163 0 -159 0 +155 0 -153 0 +151 0 *
So

0100000
+150 0 *
Ve
1e-07
0 0 12.7
0 0

0101101
*
Ve
1e-07
0 0 0
0 0

0101101
*
Ed
 1e-07 1 1 0
1  13 0 0 12.7
2  25 7 0 0 12.7
2  26 8 0 0 12.7
6  25 7 0
6  26 8 0
0

0101000
-148 0 +147 0 *
Ve
1e-07
0 274.32 12.7
0 0

0101101
*
Ed
 1e-07 1 1 0
1  14 0 0 274.32
2  27 7 0 0 274.32
2  28 9 0 0 274.32
6  27 7 0
6  28 9 0
0

0101000
-145 0 +148 0 *
Ve
1e-07
0 274.32 0
0 0

0101101
*
Ed
 1e-07 1 1 0
1  15 0 0 12.7
2  29 7 0 0 12.7
2  30 10 0 0 12.7
6  29 7 0
6  30 10 0
0

0101000
-145 0 +143 0 *
Ed
 1e-07 1 1 0
1  16 0 0 274.32
2  31 7 0 0 274.32
2  32 11 0 0 274.32
6  31 7 0
6  32 11 0
0

0101000
-143 0 +147 0 *
Wi

0101000
-146 0 -144 0 +142 0 +141 0 *
Fa
0  1e-07 7 0
2  7
0101000
+140 0 *
Ve
1e-07
111.125 0 12.7
0 0

0101101
*
Ve
1e-07
111.125 0 0
0 0

0101101
*
Ed
 1e-07 1 1 0
1  17 0 0 12.7
2  33 12 0 0 12.7
2  34 8 0 0 12.7
6  33 12 0
6  34 8 0
0

0101000
-138 0 +137 0 *
Ve
1e-07
111.125 274.32 12.7
0 0

0101101
*
Ed
 1e-07 1 1 0
1  18 0 0 274.32
2  35 12 0 0 274.32
2  36 9 0 0 274.32
6  35 12 0
6  36 9 0
0

0101000
-135 0 +138 0 *
Ve
1e-07
111.125 274.32 0
0 0

0101101
*
Ed
 1e-07 1 1 0
1  19 0 0 12.7
2  37 12 0 0 12.7
2  38 10 0 0 12.7
6  37 12 0
6  38 10 0
0

0101000
-135 0 +133 0 *
Ed
 1e-07 1 1 0
1  20 0 0 274.32
2  39 12 0 0 274.32
2  40 11 0 0 274.32
6  39 12 0
6  40 11 0
0

0101000
-133 0 +137 0 *
Wi

0101000
-136 0 -134 0 +132 0 +131 0 *
Fa
0  1e-07 12 0
2  12
0101000
+130 0 *
Ed
 1e-07 1 1 0
1  21 0 0 111.125
2  41 8 0 0 111.125
2  42 11 0 0 111.125
6  41 8 0
6  42 11 0
0

0101000
-137 0 +147 0 *
Ed
 1e-07 1 1 0
1  22 0 0 111.125
2  43 8 0 0 111.125
2  44 9 0 0 111.125
6  43 8 0
6  44 9 0
0

0101000
-138 0 +148 0 *
Wi

0101000
-128 0 -136 0 +127 0 +146 0 *
Fa
0  1e-07 8 0
2  8
0101000
+126 0 *
Ed
 1e-07 1 1 0
1  23 0 0 111.125
2  45 10 0 0 111.125
2  46 11 0 0 111.125
6  45 10 0
6  46 11 0
0

0101000
-133 0 +143 0 *
Ed
 1e-07 1 1 0
1  24 0 0 111.125
2  47 10 0 0 111.125
2  48 9 0 0 111.125
6  47 10 0
6  48 9 0
0

0101000
-135 0 +145 0 *
Wi

0101000
-124 0 -132 0 +123 0 +142 0 *
Fa
0  1e-07 10 0
2  10
0101000
+122 0 *
Wi

0101000
-141 0 -124 0 +131 0 +128 0 *
Fa
0  1e-07 11 0
2  11
0101000
+120 0 *
Wi

0101000
-144 0 -123 0 +134 0 +127 0 *
Fa
0  1e-07 9 0
2  9
0101000
+118 0 *
Sh

0101100
-139 0 +129 0 -125 0 +121 0 -119 0 +117 0 *
So

0100000
+116 0 *
Ve
1e-07
0 0 12.7
0 0

0101101
*
Ve
1e-07
0 0 0
0 0

0101101
*
Ed
 1e-07 1 1 0
1  25 0 0 12.7
2  49 13 0 0 12.7
2  50 14 0 0 12.7
6  49 13 0
6  50 14 0
0

0101000
-114 0 +113 0 *
Ve
1e-07
0 53.34 12.7
0 0

0101101
*
Ed
 1e-07 1 1 0
1  26 0 0 53.34
2  51 13 0 0 53.34
2  52 15 0 0 53.34
6  51 13 0
6  52 15 0
0

0101000
-111 0 +114 0 *
Ve
1e-07
0 53.34 0
0 0

0101101
*
Ed
 1e-07 1 1 0
1  27 0 0 12.7
2  53 13 0 0 12.7
2  54 16 0 0 12.7
6  53 13 0
6  54 16 0
0

0101000
-111 0 +109 0 *
Ed
 1e-07 1 1 0
1  28 0 0 53.34
2  55 13 0 0 53.34
2  56 17 0 0 53.34
6  55 13 0
6  56 17 0
0

0101000
-109 0 +113 0 *
Wi

0101000
-112 0 -110 0 +108 0 +107 0 *
Fa
0  1e-07 13 0
2  13
0101000
+106 0 *
Ve
1e-07
60.325 0 12.7
0 0

0101101
*
Ve
1e-07
60.325 0 0
0 0

0101101
*
Ed
 1e-07 1 1 0
1  29 0 0 12.7
2  57 18 0 0 12.7
2  58 14 0 0 12.7
6  57 18 0
6  58 14 0
0

0101000
-104 0 +103 0 *
Ve
1e-07
60.325 53.34 12.7
0 0

0101101
*
Ed
 1e-07 1 1 0
1  30 0 0 53.34
2  59 18 0 0 53.34
2  60 15 0 0 53.34
6  59 18 0
6  60 15 0
0

0101000
-101 0 +104 0 *
Ve
1e-07
60.325 53.34 0
0 0

0101101
*
Ed
 1e-07 1 1 0
1  31 0 0 12.7
2  61 18 0 0 12.7
2  62 16 0 0 12.7
6  61 18 0
6  62 16 0
0

0101000
-101 0 +99 0 *
Ed
 1e-07 1 1 0
1  32 0 0 53.34
2  63 18 0 0 53.34
2  64 17 0 0 53.34
6  63 18 0
6  64 17 0
0

0101000
-99 0 +103 0 *
Wi

0101000
-102 0 -100 0 +98 0 +97 0 *
Fa
0  1e-07 18 0
2  18
0101000
+96 0 *
Ed
 1e-07 1 1 0
1  33 0 0 60.325
2  65 14 0 0 60.325
2  66 17 0 0 60.325
6  65 14 0
6  66 17 0
0

0101000
-103 0 +113 0 *
Ed
 1e-07 1 1 0
1  34 0 0 60.325
2  67 14 0 0 60.325
2  68 15 0 0 60.325
6  67 14 0
6  68 15 0
0

0101000
-104 0 +114 0 *
Wi

0101000
-94 0 -102 0 +93 0 +112 0 *
Fa
0  1e-07 14 0
2  14
0101000
+92 0 *
Ed
 1e-07 1 1 0
1  35 0 0 60.325
2  69 16 0 0 60.325
2  70 17 0 0 60.325
6  69 16 0
6  70 17 0
0

0101000
-99 0 +109 0 *
Ed
 1e-07 1 1 0
1  36 0 0 60.325
2  71 16 0 0 60.325
2  72 15 0 0 60.325
6  71 16 0
6  72 15 0
0

0101000
-101 0 +111 0 *
Wi

0101000
-90 0 -98 0 +89 0 +108 0 *
Fa
0  1e-07 16 0
2  16
0101000
+88 0 *
Wi

0101000
-107 0 -90 0 +97 0 +94 0 *
Fa
0  1e-07 17 0
2  17
0101000
+86 0 *
Wi

0101000
-110 0 -89 0 +100 0 +93 0 *
Fa
0  1e-07 15 0
2  15
0101000
+84 0 *
Sh

0101100
-105 0 +95 0 -91 0 +87 0 -85 0 +83 0 *
So

0100000
+82 0 *
Ve
1e-07
9.52500000000001 269.46697998 19.0499992371
0 0

0101101
*
Ed
 1e-07 1 1 0
1  37 0 0 19.0499992371
6  73 19 0
6  74 20 0
0

0101000
+80 0 -80 6 *
Ve
1e-07
-13.51709137 269.46697998 19.0499992371
0 0

0101101
*
Ed
 1e-07 1 1 0
1  38 0 0 19.0499992371
6  75 19 0
6  76 21 0
0

0101000
+78 0 -78 6 *
Ed
 1e-07 1 1 0
1  39 0 0 23.04209137
2  73 20 0 0 23.04209137
6  77 19 8
6  78 19 9
6  79 22 0
0

0101000
+80 8 -78 8 *
Wi

0101000
+79 0 -77 0 -76 7 +76 10 *
Fa
0  1e-07 19 0
2  19
0101000
+75 0 *
Ve
1e-07
-13.517098999 289.163726807 19.0499992371
0 0

0101101
*
Ed
 1e-07 1 1 0
1  40 0 0 19.0499992371
6  80 21 0
6  81 23 0
0

0101000
+73 0 -73 6 *
Ed
 1e-07 1 1 0
1  41 0 0 19.6967468270014
2  74 20 0 0 19.6967468270014
6  82 21 9
6  83 21 8
6  84 22 0
0

0101000
+78 8 -73 8 *
Wi

0101000
+77 0 -72 0 -71 7 +71 10 *
Fa
0  1e-07 21 0
2  21
0101000
+70 0 *
Ve
1e-07
-31.606500244 289.163726807 19.0499992371
0 0

0101101
*
Ed
 1e-07 1 1 0
1  42 0 0 19.0499992371
6  85 23 0
6  86 24 0
0

0101000
+68 0 -68 6 *
Ed
 1e-07 1 1 0
1  43 0 0 18.089401245
2  75 20 0 0 18.089401245
6  87 23 8
6  88 23 9
6  89 22 0
0

0101000
+73 8 -68 8 *
Wi

0101000
+72 0 -67 0 -66 7 +66 10 *
Fa
0  1e-07 22 0
2  23
0101000
+65 0 *
Ve
1e-07
-31.606500244 303.936309815 19.0499992371
0 0

0101101
*
Ed
 1e-07 1 1 0
1  44 0 0 19.0499992371
6  90 24 0
6  91 25 0
0

0101000
+63 0 -63 6 *
Ed
 1e-07 1 1 0
1  45 0 0 14.772583008
2  76 20 0 0 14.772583008
6  92 24 8
6  93 24 9
6  94 22 0
0

0101000
+68 8 -63 8 *
Wi

0101000
+67 0 -62 0 -61 7 +61 10 *
Fa
0  1e-07 23 0
2  24
0101000
+60 0 *
Ve
1e-07
-13.517098999 303.936309815 19.0499992371
0 0

0101101
*
Ed
 1e-07 1 1 0
1  46 0 0 19.0499992371
6  95 25 0
6  96 26 0
0

0101000
+58 0 -58 6 *
Ed
 1e-07 1 1 0
1  47 0 0 18.089401245
2  77 20 0 0 18.089401245
6  97 25 9
6  98 25 8
6  99 22 0
0

0101000
+63 8 -58 8 *
Wi

0101000
+62 0 -57 0 -56 7 +56 10 *
Fa
0  1e-07 24 0
2  25
0101000
+55 0 *
Ve
1e-07
-13.51709137 322.579986572 19.0499992371
0 0

0101101
*
Ed
 1e-07 1 1 0
1  48 0 0 19.0499992371
6  100 26 0
6  101 27 0
0

0101000
+53 0 -53 6 *
Ed
 1e-07 1 1 0
1  49 0 0 18.6436767570015
2  78 20 0 0 18.6436767570015
6  102 26 8
6  103 26 9
6  104 22 0
0

0101000
+58 8 -53 8 *
Wi

0101000
+57 0 -52 0 -51 7 +51 10 *
Fa
0  1e-07 25 0
2  26
0101000
+50 0 *
Ve
1e-07
9.52500000000001 322.579986572 19.0499992371
0 0

0101101
*
Ed
 1e-07 1 1 0
1  50 0 0 19.0499992371
6  105 27 0
6  106 20 0
0

0101000
+48 0 -48 6 *
Ed
 1e-07 1 1 0
1  51 0 0 23.04209137
2  79 20 0 0 23.04209137
6  107 27 8
6  108 27 9
6  109 22 0
0

0101000
+53 8 -48 8 *
Wi

0101000
+52 0 -47 0 -46 7 +46 10 *
Fa
0  1e-07 26 0
2  27
0101000
+45 0 *
Ed
 1e-07 1 1 0
1  52 0 0 53.113006592
2  80 20 0 0 53.113006592
6  110 20 9
6  111 20 8
6  112 22 0
0

0101000
+48 8 -80 8 *
Wi

0101000
+47 0 -79 0 -43 7 +43 10 *
Fa
0  1e-07 27 0
2  20
0101000
+42 0 *
Wi

0101100
+76 0 +71 0 +66 0 +61 0 +56 0 +51 0 +46 0 +43 0 *
Fa
0  1e-07 20 0
2  22
0101000
-40 0 *
Sh

0101100
-74 0 -69 0 -64 0 -59 0 -54 0 -49 0 -44 0 -41 0 +39 7 -39 10 
*
So

0100100
+38 0 *
Ve
1e-07
0 0 12.7
0 0

0101101
*
Ve
1e-07
0 0 0
0 0

0101101
*
Ed
 1e-07 1 1 0
1  53 0 0 12.7
2  81 28 0 0 12.7
2  82 29 0 0 12.7
6  113 28 0
6  114 29 0
0

0101000
-36 0 +35 0 *
Ve
1e-07
0 71.12 12.7
0 0

0101101
*
Ed
 1e-07 1 1 0
1  54 0 0 71.12
2  83 28 0 0 71.12
2  84 30 0 0 71.12
6  115 28 0
6  116 30 0
0

0101000
-33 0 +36 0 *
Ve
1e-07
0 71.12 0
0 0

0101101
*
Ed
 1e-07 1 1 0
1  55 0 0 12.7
2  85 28 0 0 12.7
2  86 31 0 0 12.7
6  117 28 0
6  118 31 0
0

0101000
-33 0 +31 0 *
Ed
 1e-07 1 1 0
1  56 0 0 71.12
2  87 28 0 0 71.12
2  88 32 0 0 71.12
6  119 28 0
6  120 32 0
0

0101000
-31 0 +35 0 *
Wi

0101000
-34 0 -32 0 +30 0 +29 0 *
Fa
0  1e-07 28 0
2  28
0101000
+28 0 *
Ve
1e-07
111.125 0 12.7
0 0

0101101
*
Ve
1e-07
111.125 0 0
0 0

0101101
*
Ed
 1e-07 1 1 0
1  57 0 0 12.7
2  89 33 0 0 12.7
2  90 29 0 0 12.7
6  121 33 0
6  122 29 0
0

0101000
-26 0 +25 0 *
Ve
1e-07
111.125 71.12 12.7
0 0

0101101
*
Ed
 1e-07 1 1 0
1  58 0 0 71.12
2  91 33 0 0 71.12
2  92 30 0 0 71.12
6  123 33 0
6  124 30 0
0

0101000
-23 0 +26 0 *
Ve
1e-07
111.125 71.12 0
0 0

0101101
*
Ed
 1e-07 1 1 0
1  59 0 0 12.7
2  93 33 0 0 12.7
2  94 31 0 0 12.7
6  125 33 0
6  126 31 0
0

0101000
-23 0 +21 0 *
Ed
 1e-07 1 1 0
1  60 0 0 71.12
2  95 33 0 0 71.12
2  96 32 0 0 71.12
6  127 33 0
6  128 32 0
0

0101000
-21 0 +25 0 *
Wi

0101000
-24 0 -22 0 +20 0 +19 0 *
Fa
0  1e-07 33 0
2  33
0101000
+18 0 *
Ed
 1e-07 1 1 0
1  61 0 0 111.125
2  97 29 0 0 111.125
2  98 32 0 0 111.125
6  129 29 0
6  130 32 0
0

0101000
-25 0 +35 0 *
Ed
 1e-07 1 1 0
1  62 0 0 111.125
2  99 29 0 0 111.125
2  100 30 0 0 111.125
6  131 29 0
6  132 30 0
0

0101000
-26 0 +36 0 *
Wi

0101000
-16 0 -24 0 +15 0 +34 0 *
Fa
0  1e-07 29 0
2  29
0101000
+14 0 *
Ed
 1e-07 1 1 0
1  63 0 0 111.125
2  101 31 0 0 111.125
2  102 32 0 0 111.125
6  133 31 0
6  134 32 0
0

0101000
-21 0 +31 0 *
Ed
 1e-07 1 1 0
1  64 0 0 111.125
2  103 31 0 0 111.125
2  104 30 0 0 111.125
6  135 31 0
6  136 30 0
0

0101000
-23 0 +33 0 *
Wi

0101000
-12 0 -20 0 +11 0 +30 0 *
Fa
0  1e-07 31 0
2  31
0101000
+10 0 *
Wi

0101000
-29 0 -12 0 +19 0 +16 0 *
Fa
0  1e-07 32 0
2  32
0101000
+8 0 *
Wi

0101000
-32 0 -11 0 +22 0 +15 0 *
Fa
0  1e-07 30 0
2  30
0101000
+6 0 *
Sh

0101100
-27 0 +17 0 -13 0 +9 0 -7 0 +5 0 *
So

0100000
+4 0 *
Co

0100000
+149 2 +115 3 +81 4 +37 5 +3 11 *
Co

1100000
+2 1 *

+1 0 